<svg version="1.1" id="Layer_1" xmlns="http://www.w3.org/2000/svg" xmlns:xlink="http://www.w3.org/1999/xlink" x="0px" y="0px"
	 width="100%" viewBox="0 0 533 509" enable-background="new 0 0 533 509" xml:space="preserve">
<path fill="#FFFFFF" opacity="1.000000" stroke="none" 
	d="
M251.000000,510.000000 
	C168.686279,510.000000 86.872536,509.976044 5.058971,510.086914 
	C1.765182,510.091400 0.895796,509.605560 0.898275,506.060699 
	C1.015040,339.100800 1.017511,172.140823 0.889202,5.180962 
	C0.886287,1.387847 1.896679,0.916656 5.317130,0.918469 
	C180.108505,1.011128 354.899933,1.011466 529.691284,0.916539 
	C533.134521,0.914669 534.111938,1.419587 534.109131,5.189393 
	C533.982849,171.982635 533.983032,338.776001 534.104370,505.569275 
	C534.107239,509.474091 533.056519,510.091553 529.432739,510.087219 
	C436.788605,509.976685 344.144287,510.000000 251.000000,510.000000 
z"/>
<path fill="#43A72A" opacity="1.000000" stroke="none" 
	d="
M364.481079,311.245605 
	C372.830841,305.675293 379.656311,299.218719 385.492279,291.751434 
	C387.624420,289.023285 387.531219,285.835358 386.351593,282.705414 
	C385.439026,280.284058 385.659912,278.150360 387.512970,276.261414 
	C396.239136,267.366394 404.918457,258.423279 415.141602,249.234467 
	C415.259766,278.571716 409.199341,305.091003 393.396637,328.910889 
	C377.404907,353.015747 354.641296,368.180023 326.347412,377.858612 
	C332.136230,378.251556 336.637268,378.923645 336.649109,384.774231 
	C336.657379,388.874390 333.736603,390.279236 326.188477,390.279266 
	C282.527618,390.279388 238.866791,390.286438 195.205948,390.271881 
	C188.329529,390.269562 185.403503,387.433716 186.987427,382.388367 
	C188.252457,378.358795 191.903351,378.495178 196.157333,377.808990 
	C187.770096,374.679413 180.347427,371.736420 173.285843,367.956848 
	C139.066544,349.641541 119.583145,320.713226 112.210930,283.126190 
	C109.119286,267.363556 108.103432,251.458572 109.819855,235.420395 
	C110.266792,231.244308 111.276466,227.229233 112.614120,223.304901 
	C116.105537,213.061920 122.612984,208.234955 133.416000,207.770889 
	C146.872574,207.192856 159.322418,211.697098 171.841888,215.660080 
	C194.364716,222.789536 216.729446,230.489258 240.334000,233.434616 
	C252.424210,234.943237 264.543365,235.943466 276.677490,234.158875 
	C280.876068,233.541382 283.609955,234.286987 285.987518,238.343582 
	C291.786835,248.238464 298.203888,257.771301 304.814209,268.143433 
	C308.314362,262.762695 311.581177,257.834442 314.752411,252.845444 
	C320.735046,243.433487 326.660797,233.985382 332.615051,224.555359 
	C333.678070,222.871811 334.734528,221.404266 336.909393,220.708023 
	C351.163605,216.144730 365.215332,210.781387 380.060822,208.445328 
	C388.264404,207.154434 396.798279,206.215881 404.045471,211.946121 
	C412.741364,218.821884 413.716766,228.958359 414.840912,238.918533 
	C414.943665,239.829010 413.935303,241.009613 413.197021,241.848328 
	C404.069061,252.218124 394.895233,262.547546 385.733521,272.887634 
	C383.715607,275.165100 381.575928,276.313812 378.296692,275.106018 
	C374.323303,273.642609 370.867981,275.224945 367.798737,277.959442 
	C362.414398,282.756531 358.809814,289.156494 353.568481,294.000580 
	C341.964203,304.725403 336.916534,319.296814 330.119537,332.848877 
	C329.530426,334.023468 327.357422,335.762115 329.791534,336.970459 
	C331.626831,337.881531 333.775726,337.708679 334.488617,335.003113 
	C335.331329,331.804840 337.566711,331.544006 340.296295,332.226685 
	C344.277954,333.222443 349.835693,331.868164 349.645386,338.903076 
	C349.616455,339.971741 360.493866,342.249268 361.346832,341.415375 
	C362.335266,340.449066 361.779846,339.223022 361.606201,338.106049 
	C360.559174,331.369690 359.489929,324.636810 358.553162,317.532166 
	C358.688721,316.766785 358.754028,316.381226 358.993347,315.734406 
	C359.214111,315.294159 359.314636,315.124237 359.594116,314.719116 
	C359.909149,314.342285 360.045258,314.200684 360.406799,313.871918 
	C360.795563,313.580292 360.958862,313.475861 361.375305,313.234497 
	C362.129547,312.828369 362.630615,312.559265 363.262756,311.969971 
	C363.624542,311.649048 363.776154,311.526917 364.481079,311.245605 
z"/>
<path fill="#FF5504" opacity="1.000000" stroke="none" 
	d="
M326.724609,187.466492 
	C330.336670,187.477402 329.091675,190.784958 330.555817,192.257828 
	C332.163544,193.875137 335.597076,192.717316 335.833679,195.865875 
	C336.151611,200.096649 335.549896,204.407349 333.554871,208.009186 
	C324.787689,223.837494 314.768372,238.904068 304.559296,254.864395 
	C296.882416,242.592926 289.502808,230.867737 282.200134,219.094803 
	C278.264099,212.749390 274.312805,206.512650 273.545227,198.671448 
	C271.421143,176.972549 292.563599,159.458450 313.361694,165.940887 
	C314.152588,166.187393 315.635162,166.418091 315.636993,166.664703 
	C315.668304,170.902786 319.991791,173.653519 319.822815,177.635391 
	C319.566498,183.675522 320.404266,185.487656 326.724609,187.466492 
z"/>
<path fill="#4EAC36" opacity="1.000000" stroke="none" 
	d="
M329.494934,153.861557 
	C329.454041,150.626862 331.586884,146.822464 328.849487,145.197754 
	C326.230743,143.643509 322.886963,146.002609 320.150757,147.623917 
	C316.484436,149.796341 314.103485,153.215225 311.471710,156.918167 
	C307.236908,142.908157 297.372650,133.921188 286.501617,125.771729 
	C285.504211,125.024040 284.593414,123.401550 283.169342,124.147629 
	C281.762726,124.884567 282.558258,126.517906 282.603729,127.779289 
	C283.019501,139.316635 287.820709,148.910461 296.197876,157.260910 
	C281.064484,154.398575 271.057037,133.808746 273.535797,108.963913 
	C292.620819,116.962585 307.227295,128.788635 312.717590,150.404984 
	C317.164185,144.062347 322.613312,140.062408 329.959900,139.171921 
	C335.387604,138.514008 336.614319,139.658157 335.795898,145.007690 
	C335.254486,148.546402 333.797607,151.684799 330.801361,154.322922 
	C330.245880,154.418045 329.973358,154.328659 329.494934,153.861557 
z"/>
<path fill="#5FB245" opacity="1.000000" stroke="none" 
	d="
M356.943176,302.707947 
	C360.866608,298.866547 364.371185,295.321533 368.075012,291.998566 
	C369.417969,290.793671 370.823883,287.666718 372.467651,289.124146 
	C374.305817,290.753967 371.354462,292.364105 370.215088,293.754608 
	C367.166595,297.474854 363.966003,301.070618 360.821198,304.711792 
	C360.080414,305.569489 359.096588,306.292450 359.279175,307.720612 
	C361.208832,308.808685 361.870361,306.855408 362.769104,306.022644 
	C366.785034,302.301392 370.650574,298.418152 374.589355,294.613068 
	C375.355530,293.872864 376.045197,292.350281 377.364288,293.538727 
	C378.670532,294.715668 377.313690,295.620056 376.591309,296.410828 
	C373.456543,299.842346 370.260864,303.218140 367.110657,306.635712 
	C366.006378,307.833740 364.543701,308.794281 364.670227,310.848083 
	C365.034393,311.086426 364.984222,311.044281 365.016754,311.043945 
	C364.868225,311.152618 364.687195,311.261627 364.204102,311.465637 
	C363.026245,312.157959 362.493073,313.156616 361.267334,313.834534 
	C361.037018,314.055115 361.000000,314.001221 361.018250,314.026917 
	C360.768219,314.223602 360.529938,314.429321 360.177490,314.857605 
	C360.033295,315.045380 360.004486,314.996643 360.027954,315.012695 
	C359.592926,315.393555 359.073730,315.534119 358.127502,315.248749 
	C359.161865,310.888947 354.760651,307.292938 356.943176,302.707947 
z"/>
<path fill="#5FB245" opacity="1.000000" stroke="none" 
	d="
M348.537170,325.860107 
	C346.685486,331.353485 343.049805,327.603302 340.492432,327.416382 
	C337.110504,327.169128 339.603241,324.593567 340.125519,323.344635 
	C341.757507,319.441772 343.735687,315.683685 346.196411,310.593811 
	C347.084473,316.426727 347.772400,320.945007 348.537170,325.860107 
z"/>
<path fill="#69B64F" opacity="1.000000" stroke="none" 
	d="
M357.056702,301.863800 
	C357.283234,302.323761 357.186920,302.371704 357.216309,302.370209 
	C356.189178,301.314850 355.037109,302.394836 353.949066,302.219818 
	C351.801178,301.874298 350.823822,301.101379 352.753204,299.101715 
	C357.129822,294.565704 361.443604,289.969147 365.812500,285.425629 
	C366.471130,284.740662 367.321533,283.719208 368.317291,284.520599 
	C369.686951,285.622986 368.426056,286.636292 367.736298,287.438141 
	C365.031555,290.582336 362.249695,293.660400 359.485413,296.753082 
	C358.266418,298.116852 356.958344,299.421112 357.056702,301.863800 
z"/>
<path fill="#C5E4BD" opacity="1.000000" stroke="none" 
	d="
M357.573486,315.273376 
	C358.268982,315.015869 358.776764,314.984772 359.667969,314.991180 
	C360.822327,316.097717 359.694794,316.391418 358.968872,317.064697 
	C357.858978,316.909698 357.252258,316.492615 357.573486,315.273376 
z"/>
<path fill="#8ECA7E" opacity="1.000000" stroke="none" 
	d="
M329.678375,154.857193 
	C329.579468,155.662491 329.077698,156.263443 328.312347,156.953674 
	C328.038025,156.491013 328.027313,155.939041 328.223511,155.179779 
	C328.712158,154.865921 328.993835,154.759369 329.678375,154.857193 
z"/>
<path fill="#8ECA7E" opacity="1.000000" stroke="none" 
	d="
M327.997314,156.986267 
	C327.901886,156.986191 327.821411,157.006866 327.894836,157.035263 
	C328.048737,157.042969 328.012268,157.007050 327.997314,156.986267 
z"/>
<path fill="#4EAC36" opacity="1.000000" stroke="none" 
	d="
M330.220032,154.946304 
	C329.806763,155.038025 329.532288,155.014496 328.844116,154.981720 
	C328.605682,154.631653 328.780914,154.290817 329.122589,153.716904 
	C329.500977,153.645615 329.712891,153.807388 330.221619,154.238297 
	C330.518402,154.507431 330.358826,154.831055 330.220032,154.946304 
z"/>
<path fill="#F7FBF6" opacity="1.000000" stroke="none" 
	d="
M155.851120,295.815796 
	C168.737885,286.346741 185.463394,287.576233 195.070633,298.479492 
	C196.459412,300.055634 198.578537,301.665863 195.302490,303.517700 
	C193.142883,304.738434 191.118286,307.393829 188.974350,303.323883 
	C185.660629,297.033295 180.026840,294.881897 173.387619,296.088104 
	C166.963318,297.255280 164.402603,302.512024 162.836365,308.171356 
	C161.017059,314.745026 161.132553,321.406067 163.326904,327.853302 
	C165.208023,333.380127 168.141953,338.064972 174.631683,339.298737 
	C181.461655,340.597107 186.099548,337.255157 190.253128,332.533325 
	C191.281815,331.363922 191.616501,329.043121 193.711151,329.487427 
	C195.076294,329.776917 196.525208,330.747467 197.435898,331.832977 
	C198.588638,333.206970 196.867462,334.205536 196.208557,335.182678 
	C188.554169,346.534393 171.842896,349.692841 159.115692,342.259857 
	C146.476471,334.878265 141.547241,319.178131 147.755859,306.276794 
	C149.665421,302.308777 152.250824,298.905701 155.851120,295.815796 
z"/>
<path fill="#F6FBF4" opacity="1.000000" stroke="none" 
	d="
M247.229736,255.894592 
	C250.062347,264.434723 252.634216,272.668976 255.441498,280.822205 
	C256.511627,283.930115 255.839417,285.118500 252.508560,284.898743 
	C249.355789,284.690735 246.067520,285.788788 244.626465,281.109222 
	C243.669388,278.001251 234.397537,278.567352 233.348953,281.773071 
	C232.364792,284.781830 230.687637,284.933014 228.104980,284.783417 
	C224.466370,284.572632 220.783112,285.047119 217.154953,284.765167 
	C213.224625,284.459686 210.920288,282.571320 211.010925,277.996155 
	C211.244781,266.193390 211.298828,254.377991 210.996399,242.578613 
	C210.890457,238.444794 212.628357,238.168884 215.956131,238.052658 
	C219.779785,237.919098 220.214020,239.629608 220.168289,242.799316 
	C220.014755,253.440323 220.048401,264.085571 220.159088,274.727661 
	C220.184418,277.164001 219.214478,280.464600 223.262848,280.939941 
	C226.695297,281.342957 229.384415,281.230621 230.456284,276.606262 
	C231.985611,270.008209 234.462250,263.612305 236.782455,257.220123 
	C238.906052,251.369614 242.945602,250.799835 247.229736,255.894592 
z"/>
<path fill="#F5FAF4" opacity="1.000000" stroke="none" 
	d="
M286.169647,310.301575 
	C285.879639,306.292938 288.411530,306.950592 290.509430,306.890991 
	C292.958923,306.821472 293.035156,308.445129 293.030518,310.227539 
	C293.013184,316.888062 292.629211,323.578156 293.122162,330.202118 
	C293.804321,339.368225 286.542572,344.973145 280.231445,346.010712 
	C271.661530,347.419647 264.258789,343.059753 262.187042,334.781036 
	C260.064697,326.300232 261.574249,317.547180 261.289032,308.919800 
	C261.241516,307.481842 262.235016,307.107635 263.561035,306.871033 
	C272.341278,305.304474 273.936035,306.579620 273.936401,315.381866 
	C273.936584,320.377289 273.896820,325.373169 273.948364,330.368073 
	C274.015625,336.879822 275.530762,338.942291 280.205109,339.080078 
	C284.637695,339.210724 286.096771,337.120026 286.168274,330.214508 
	C286.235382,323.733368 286.183685,317.250977 286.169647,310.301575 
z"/>
<path fill="#F4FAF3" opacity="1.000000" stroke="none" 
	d="
M159.366302,266.993347 
	C159.359100,278.252777 159.359360,278.220459 170.346298,278.309357 
	C171.951874,278.322357 173.820724,277.643341 175.141006,278.860229 
	C176.333954,279.959717 175.843643,281.661560 175.718735,283.121918 
	C175.546967,285.130249 173.936249,284.741455 172.687531,284.746490 
	C165.046570,284.777283 157.402512,284.640900 149.765823,284.824310 
	C146.817795,284.895142 146.160950,283.781342 146.185165,281.062012 
	C146.300522,268.106445 146.316147,255.148376 146.176270,242.193268 
	C146.144608,239.261002 146.819550,238.010269 150.001373,238.105682 
	C161.505890,238.450607 159.125595,236.644089 159.341751,247.059387 
	C159.476151,253.534851 159.366425,260.015381 159.366302,266.993347 
z"/>
<path fill="#F6FBF4" opacity="1.000000" stroke="none" 
	d="
M299.410980,293.464539 
	C299.981659,286.502167 304.938751,290.422974 307.794434,289.707550 
	C311.055115,288.890686 310.329468,291.892059 310.335693,293.693909 
	C310.382233,307.150330 310.462158,320.608154 310.303345,334.062866 
	C310.251740,338.433075 311.121368,341.300385 316.312775,340.666443 
	C317.802338,340.484558 319.306793,340.427521 319.392609,342.756531 
	C319.471588,344.900146 318.265747,345.209747 316.633453,345.320282 
	C314.979309,345.432312 313.331390,345.700562 311.677185,345.736816 
	C301.577789,345.958282 299.410522,343.829163 299.410370,333.785431 
	C299.410187,320.494995 299.410400,307.204529 299.410980,293.464539 
z"/>
<path fill="#F7FBF5" opacity="1.000000" stroke="none" 
	d="
M223.718628,311.390442 
	C227.037842,321.725006 230.118835,331.740479 233.435791,341.677216 
	C234.423553,344.636322 233.811325,345.579041 230.722382,345.391083 
	C226.353088,345.125183 221.495712,346.903412 219.831116,340.089966 
	C219.110260,337.139374 207.497437,339.003265 206.523499,342.261200 
	C205.732697,344.906494 204.152679,346.117889 201.815430,345.179169 
	C199.154434,344.110382 201.252274,342.040100 201.689087,340.600403 
	C204.536774,331.214355 207.488113,321.858124 210.553284,312.540741 
	C211.499924,309.663208 212.891327,306.947113 216.535660,306.614777 
	C220.033203,306.295837 222.191681,308.030914 223.718628,311.390442 
z"/>
<path fill="#FBFDFA" opacity="1.000000" stroke="none" 
	d="
M251.793030,345.672211 
	C249.705322,345.631561 248.028290,345.662659 246.386765,345.436249 
	C239.927826,344.545502 238.778442,343.242035 238.767441,336.766571 
	C238.743393,322.607758 238.964005,308.444183 238.640884,294.292725 
	C238.538666,289.816376 240.561935,289.465027 243.961670,289.609070 
	C246.986969,289.737244 249.554291,289.238495 249.407379,294.055450 
	C249.011490,307.036224 249.337860,320.037506 249.237518,333.029541 
	C249.201401,337.703064 249.676880,341.561371 255.878632,340.753326 
	C257.315735,340.566071 258.498932,340.890625 258.555603,342.796051 
	C258.607422,344.540039 257.808563,345.151855 256.188690,345.209198 
	C254.862564,345.256104 253.542679,345.480164 251.793030,345.672211 
z"/>
<path fill="#F4FAF2" opacity="1.000000" stroke="none" 
	d="
M205.444366,276.987976 
	C201.935333,283.630890 196.827621,286.246033 190.199188,285.133514 
	C184.466812,284.171387 180.373016,280.190308 179.659714,273.523926 
	C179.008057,267.433899 179.334885,261.238495 179.249374,255.089294 
	C179.238037,254.274643 179.190353,253.070389 180.117996,253.000015 
	C183.079422,252.775436 186.184235,252.294495 188.995728,252.943420 
	C191.109665,253.431366 189.919083,256.131439 189.969635,257.806549 
	C190.130142,263.125641 190.082169,268.452179 190.051758,273.775482 
	C190.030884,277.429626 191.648224,279.427094 195.425034,279.382111 
	C199.185989,279.337311 200.166504,276.902496 200.182297,273.724976 
	C200.211227,267.902740 200.267242,262.079102 200.169052,256.258484 
	C200.129517,253.914658 200.506165,252.540192 203.364578,252.562073 
	C206.229492,252.584000 206.095917,254.253983 206.032654,256.161865 
	C205.806931,262.970184 206.526505,269.800629 205.444366,276.987976 
z"/>
<path fill="#C5E4BD" opacity="1.000000" stroke="none" 
	d="
M361.264099,314.333221 
	C361.000549,312.625793 362.012573,311.824738 363.204102,310.872131 
	C363.803833,311.028107 364.098083,311.260132 364.221985,312.027771 
	C363.638855,313.796997 362.593048,314.239227 361.264099,314.333221 
z"/>
<path fill="#FFFFFF" opacity="1.000000" stroke="none" 
	d="
M364.322815,312.369934 
	C363.971039,312.266022 363.890411,311.968658 363.659698,311.233704 
	C363.797974,310.639740 364.086365,310.483368 364.712036,310.685303 
	C364.897522,311.421265 364.745728,311.798889 364.322815,312.369934 
z"/>
<path fill="#C5E4BD" opacity="1.000000" stroke="none" 
	d="
M360.400696,315.171082 
	C360.161255,314.692657 360.289185,314.339966 360.726807,314.019928 
	C361.412964,314.567871 361.324219,314.982758 360.400696,315.171082 
z"/>
<path fill="#FFFAF7" opacity="1.000000" stroke="none" 
	d="
M292.046204,190.382751 
	C296.296112,182.859726 303.655548,180.173325 310.301239,183.400101 
	C317.139252,186.720261 320.075989,194.712463 316.989441,201.601654 
	C314.056824,208.147278 306.677063,211.201462 299.829926,208.703278 
	C292.629913,206.076355 289.455048,198.881607 292.046204,190.382751 
z"/>
<path fill="#69B64F" opacity="1.000000" stroke="none" 
	d="
M241.681549,267.370880 
	C242.072144,268.702637 242.451462,269.642639 242.615204,270.618835 
	C242.876724,272.177917 244.317596,274.443481 242.943726,275.152802 
	C241.215118,276.045319 238.752884,275.692810 236.623978,275.574768 
	C235.102814,275.490448 235.556717,274.244598 235.839157,273.294250 
	C236.925903,269.637665 238.022598,265.984039 239.163116,262.170380 
	C241.067688,263.450592 240.860229,265.447052 241.681549,267.370880 
z"/>
<path fill="#5CB040" opacity="1.000000" stroke="none" 
	d="
M214.283142,318.724060 
	C215.832169,322.523651 216.955444,326.491943 218.315033,330.377533 
	C219.277161,333.127167 218.810654,334.177887 215.619583,334.243439 
	C208.828400,334.382965 208.789581,334.539276 210.758804,328.167603 
	C211.727325,325.033875 212.885880,321.958923 214.283142,318.724060 
z"/>
</svg>